<svg id="Layer_1" data-name="Layer 1" xmlns="http://www.w3.org/2000/svg" viewBox="0 0 1024 500.49"><defs><style>.cls-1{fill:#fff;}</style></defs><title>illustraatio 1024</title><path class="cls-1" d="M247.46,384.24a13,13,0,0,0-16.9-1.32l2.92,2.92-2.85,2.85-2.92-2.92a13,13,0,1,0,19.76-1.54Zm-6.16,12.28a4.33,4.33,0,1,1,0-6.12A4.33,4.33,0,0,1,241.3,396.53Z"/><path class="cls-1" d="M64.66,435.78,47.36,446V425.57Z"/><path class="cls-1" d="M340.67,408A14.17,14.17,0,0,0,347,411.5v-9.36a.49.49,0,0,0-.17-.34,4.33,4.33,0,0,1,.11-6.12,4.39,4.39,0,0,1,6.18,0,4.33,4.33,0,0,1,.14,6.12c-.12.12-.25.24-.25.34v9.36a10.63,10.63,0,0,0,6.43-3.54,13,13,0,0,0-.06-18.44,13.2,13.2,0,0,0-18.57,0A13,13,0,0,0,340.67,408Z"/><rect class="cls-1" x="307.45" y="473.54" width="17.85" height="5.35" transform="translate(792.59 159.85) rotate(90)"/><rect class="cls-1" x="314.41" y="487.64" width="3.93" height="5.35" transform="translate(806.69 173.95) rotate(90)"/><path class="cls-1" d="M325.64,430.17a13,13,0,1,0,0,18.44A13,13,0,0,0,325.64,430.17Zm-12.28,12.28a4.33,4.33,0,1,1,6.12,0A4.33,4.33,0,0,1,313.36,442.45Z"/><path class="cls-1" d="M393.11,430.17a13,13,0,1,0,0,18.44A13,13,0,0,0,393.11,430.17Zm-12.28,12.28a4.33,4.33,0,1,1,6.12,0A4.33,4.33,0,0,1,380.83,442.45Z"/><path class="cls-1" d="M359.19,470.16a13,13,0,1,0,0,18.44A13,13,0,0,0,359.19,470.16Zm-12.28,12.28a4.33,4.33,0,1,1,6.12,0A4.33,4.33,0,0,1,346.91,482.44Z"/><path class="cls-1" d="M428.68,470.16a13,13,0,1,0,0,18.44A13,13,0,0,0,428.68,470.16ZM416.4,482.44a4.33,4.33,0,1,1,6.12,0A4.33,4.33,0,0,1,416.4,482.44Z"/><path class="cls-1" d="M278.75,466.89,292,489.39H265.47Z"/><path class="cls-1" d="M458.18,489.39,444.9,466.89h26.57Z"/><path class="cls-1" d="M95,489.39,81.76,466.89h26.57Z"/><rect class="cls-1" x="337.13" y="436.42" width="26.06" height="5.35" transform="translate(789.25 88.95) rotate(90)"/><rect class="cls-1" x="371.75" y="476.4" width="26.06" height="5.35" transform="translate(863.86 94.29) rotate(90)"/><rect class="cls-1" x="486.93" y="476.4" width="26.06" height="5.35" transform="translate(999.92 958.15) rotate(180)"/><rect class="cls-1" x="-0.91" y="476.4" width="26.06" height="5.35" transform="translate(24.25 958.15) rotate(180)"/><path class="cls-1" d="M187.61,488.31a13,13,0,1,0,0-18.44A13,13,0,0,0,187.61,488.31ZM199.89,476a4.33,4.33,0,1,1-6.12,0A4.33,4.33,0,0,1,199.89,476Z"/><path class="cls-1" d="M120.14,488.31a13,13,0,1,0,0-18.44A13,13,0,0,0,120.14,488.31ZM132.42,476a4.33,4.33,0,1,1-6.12,0A4.33,4.33,0,0,1,132.42,476Z"/><path class="cls-1" d="M45.89,488.31a13,13,0,1,0,0-18.44A13,13,0,0,0,45.89,488.31ZM58.17,476A4.33,4.33,0,1,1,52,476,4.33,4.33,0,0,1,58.17,476Z"/><path class="cls-1" d="M154.05,448.33a13,13,0,1,0,0-18.44A13,13,0,0,0,154.05,448.33ZM166.33,436a4.33,4.33,0,1,1-6.12,0A4.33,4.33,0,0,1,166.33,436Z"/><path class="cls-1" d="M227.82,448.33a13,13,0,1,0,0-18.44A13,13,0,0,0,227.82,448.33ZM240.1,436a4.33,4.33,0,1,1-6.12,0A4.33,4.33,0,0,1,240.1,436Z"/><path class="cls-1" d="M86,448.33a13,13,0,1,0,0-18.44A13,13,0,0,0,86,448.33ZM98.27,436a4.33,4.33,0,1,1-6.12,0A4.33,4.33,0,0,1,98.27,436Z"/><path class="cls-1" d="M445.8,448.33a13,13,0,1,0,0-18.44A13,13,0,0,0,445.8,448.33ZM458.08,436a4.33,4.33,0,1,1-6.12,0A4.33,4.33,0,0,1,458.08,436Z"/><rect class="cls-1" x="150.06" y="476.71" width="26.06" height="5.35" transform="translate(-316.29 642.48) rotate(-90)"/><polygon class="cls-1" points="413.37 422.21 418.08 417.5 421.03 420.44 429.78 411.69 421.11 403.03 412.36 411.78 415.31 414.72 410.6 419.43 413.37 422.21"/><polygon class="cls-1" points="384 385 384 392 381 392 381 405 393 405 393 392 388 392 388 385 384 385"/><polygon class="cls-1" points="137.43 423.71 132.72 419 135.67 416.06 126.92 407.31 118.25 415.98 127 424.73 129.94 421.78 134.66 426.49 137.43 423.71"/><polygon class="cls-1" points="201 451 201 444 205 444 205 431 193 431 193 444 197 444 197 451 201 451"/><polygon class="cls-1" points="281 440 281 433 285 433 285 421 271 421 271 433 276 433 276 440 281 440"/><path class="cls-1" d="M229,465v20h5.94l3.37,3.37,3.37-3.37H248V465Zm14,16.47L238.56,477l-4.6,4.6L232.32,480l4.6-4.6-4.45-4.45,1.63-1.63,4.45,4.45,4.31-4.31,1.63,1.63-4.31,4.31,4.45,4.45Z"/><path class="cls-1" d="M292,382H271v6.67L267.63,392,271,395.4V401h21Zm-17.1,14.74,4.45-4.45-4.6-4.6,1.63-1.63,4.6,4.6,4.45-4.45,1.63,1.63-4.45,4.45,4.31,4.31-1.63,1.63L281,393.92l-4.45,4.45Z"/><rect class="cls-1" x="302.17" y="389.85" width="26.06" height="5.35" transform="translate(-185.24 337.84) rotate(-45)"/><polygon class="cls-1" points="226.66 379.03 221.93 374.31 224.86 371.38 216.15 362.67 207.44 371.38 216.15 380.09 219.08 377.16 223.81 381.89 226.66 379.03"/><polygon class="cls-1" points="115.89 268.26 111.16 263.53 114.09 260.61 105.38 251.9 96.67 260.61 105.38 269.31 108.31 266.39 113.03 271.12 115.89 268.26"/><polygon class="cls-1" points="44.52 339.63 39.79 334.9 42.72 331.98 34.01 323.27 25.3 331.98 34.01 340.68 36.94 337.76 41.66 342.49 44.52 339.63"/><polygon class="cls-1" points="62.35 173.18 57.63 168.47 60.58 165.52 51.83 156.77 43.16 165.44 51.91 174.19 54.86 171.24 59.57 175.95 62.35 173.18"/><path class="cls-1" d="M90,225h21v-6.84l3.37-3.37L111,211.43V205H90Zm18.17-14.91-4.45,4.45,4.6,4.6-1.63,1.63-4.6-4.6-4.45,4.45L96,219l4.45-4.45-4.31-4.31,1.63-1.63,4.31,4.31,4.45-4.45Z"/><rect class="cls-1" x="158.15" y="389.85" width="26.06" height="5.35" transform="translate(327.7 -6.08) rotate(45)"/><rect class="cls-1" x="98.08" y="329.77" width="26.06" height="5.35" transform="translate(267.62 18.81) rotate(45)"/><rect class="cls-1" x="175.58" y="252.27" width="26.06" height="5.35" transform="translate(235.52 -58.69) rotate(45)"/><rect class="cls-1" x="22.43" y="252.27" width="26.06" height="5.35" transform="translate(190.66 49.6) rotate(45)"/><path class="cls-1" d="M737.38,428.85a13,13,0,0,0-16.9-1.32l2.92,2.92-2.85,2.85-2.92-2.92a13,13,0,1,0,19.76-1.54Zm-6.16,12.28a4.33,4.33,0,1,1,0-6.12A4.33,4.33,0,0,1,731.22,441.13Z"/><polygon class="cls-1" points="716.59 423.64 711.86 418.91 714.78 415.98 706.08 407.27 697.37 415.98 706.08 424.69 709 421.76 713.73 426.49 716.59 423.64"/><path class="cls-1" d="M554.59,480.39l-17.3,10.21V470.18Z"/><path class="cls-1" d="M815.56,474.78a13,13,0,1,0,0,18.44A13,13,0,0,0,815.56,474.78Zm-12.28,12.28a4.33,4.33,0,1,1,6.12,0A4.33,4.33,0,0,1,803.28,487.06Z"/><path class="cls-1" d="M883,474.78a13,13,0,1,0,0,18.44A13,13,0,0,0,883,474.78Zm-12.28,12.28a4.33,4.33,0,1,1,6.12,0A4.33,4.33,0,0,1,870.75,487.06Z"/><rect class="cls-1" x="827.05" y="481.03" width="26.06" height="5.35" transform="translate(1323.79 -356.37) rotate(90)"/><rect class="cls-1" x="982.95" y="481.03" width="26.06" height="5.35" transform="translate(1479.69 -512.27) rotate(90)"/><path class="cls-1" d="M644,492.93a13,13,0,1,0,0-18.44A13,13,0,0,0,644,492.93Zm12.28-12.28a4.33,4.33,0,1,1-6.12,0A4.33,4.33,0,0,1,656.26,480.65Z"/><path class="cls-1" d="M717.75,492.93a13,13,0,1,0,0-18.44A13,13,0,0,0,717.75,492.93ZM730,480.65a4.33,4.33,0,1,1-6.12,0A4.33,4.33,0,0,1,730,480.65Z"/><path class="cls-1" d="M575.92,492.93a13,13,0,1,0,0-18.44A13,13,0,0,0,575.92,492.93Zm12.28-12.28a4.33,4.33,0,1,1-6.12,0A4.33,4.33,0,0,1,588.2,480.65Z"/><path class="cls-1" d="M935.73,492.93a13,13,0,1,0,0-18.44A13,13,0,0,0,935.73,492.93ZM948,480.65a4.33,4.33,0,1,1-6.12,0A4.33,4.33,0,0,1,948,480.65Z"/><polygon class="cls-1" points="903.3 466.81 908.01 462.1 910.95 465.05 919.7 456.3 911.04 447.63 902.29 456.38 905.23 459.33 900.52 464.04 903.3 466.81"/><polygon class="cls-1" points="627.36 468.32 622.65 463.61 625.59 460.67 616.84 451.92 608.17 460.58 616.92 469.33 619.87 466.39 624.58 471.1 627.36 468.32"/><polygon class="cls-1" points="690 495 690 488 695 488 695 476 682 476 682 488 687 488 687 495 690 495"/><polygon class="cls-1" points="771 484 771 477 774 477 774 465 761 465 761 477 765 477 765 484 771 484"/><path class="cls-1" d="M768.68,371.81,782,394.31H755.39Z"/><path class="cls-1" d="M677.53,393.23a13,13,0,1,0,0-18.44A13,13,0,0,0,677.53,393.23Zm12.28-12.28a4.33,4.33,0,1,1-6.12,0A4.33,4.33,0,0,1,689.81,380.95Z"/><path class="cls-1" d="M718,370v20h6.86l3.37,3.37L731.6,390H738V370Zm14.94,16.39-4.45-4.45-4.6,4.6-1.63-1.63,4.6-4.6-4.45-4.45,1.63-1.63,4.45,4.45,4.31-4.31,1.63,1.63-4.31,4.31,4.45,4.45Z"/><path class="cls-1" d="M782,426H761v7.28l-3.37,3.37L761,440v6h21Zm-17.17,15.35,4.45-4.45-4.6-4.6,1.63-1.63,4.6,4.6,4.45-4.45,1.63,1.63-4.45,4.45,4.31,4.31-1.63,1.63-4.31-4.31L766.46,443Z"/><rect class="cls-1" x="938.35" y="186.89" width="26.06" height="5.35" transform="translate(144.61 728.25) rotate(-45)"/><path class="cls-1" d="M830.63,452.56a14.28,14.28,0,0,0,6.37,3.54v-9.36a.57.57,0,0,0-.21-.34,4.33,4.33,0,0,1,.09-6.12,4.38,4.38,0,0,1,6.17,0,4.33,4.33,0,0,1,.17,6.12.58.58,0,0,0-.21.34v9.36a10.53,10.53,0,0,0,6.39-3.54,13,13,0,0,0-.08-18.44,13.19,13.19,0,0,0-18.56,0A13,13,0,0,0,830.63,452.56Z"/><polygon class="cls-1" points="979.13 390.98 983.84 386.27 986.78 389.22 995.53 380.47 986.87 371.8 978.12 380.55 981.06 383.5 976.35 388.21 979.13 390.98"/><polygon class="cls-1" points="822.26 234.12 826.97 229.41 829.92 232.35 838.67 223.6 830 214.94 821.25 223.69 824.2 226.63 819.49 231.34 822.26 234.12"/><polygon class="cls-1" points="989.53 234.12 994.25 229.41 997.19 232.35 1005.94 223.6 997.27 214.94 988.52 223.69 991.47 226.63 986.76 231.34 989.53 234.12"/><polygon class="cls-1" points="918.91 304.75 923.62 300.03 926.57 302.98 935.32 294.23 926.65 285.56 917.9 294.31 920.84 297.26 916.13 301.97 918.91 304.75"/><polygon class="cls-1" points="874 430 874 436 871 436 871 449 882 449 882 436 877 436 877 430 874 430"/><rect class="cls-1" x="797.37" y="378.46" width="17.85" height="5.35" transform="translate(1187.43 -425.16) rotate(90)"/><rect class="cls-1" x="804.33" y="392.56" width="3.93" height="5.35" transform="translate(1201.53 -411.06) rotate(90)"/><path class="cls-1" d="M1025,426h-21v7.28l-3.37,3.37L1004,440v6h21Zm-17.26,15.35,4.45-4.45-4.6-4.6,1.63-1.63,4.6,4.6,4.45-4.45,1.63,1.63-4.45,4.45,4.31,4.31-1.63,1.63-4.31-4.31-4.45,4.45Z"/><rect class="cls-1" x="792.09" y="434.45" width="26.06" height="5.35" transform="translate(-73.28 697.34) rotate(-45)"/><rect class="cls-1" x="839.59" y="386.95" width="26.06" height="5.35" transform="translate(-25.78 717.01) rotate(-45)"/><rect class="cls-1" x="839.59" y="302.12" width="26.06" height="5.35" transform="translate(34.2 692.17) rotate(-45)"/><rect class="cls-1" x="648.08" y="434.45" width="26.06" height="5.35" transform="translate(502.73 -339.44) rotate(45)"/><path class="cls-1" d="M541.2,407.14a13,13,0,0,0,1.32-16.9l-2.92,2.92-2.85-2.85,2.92-2.92a13,13,0,1,0,1.54,19.76ZM528.92,401a4.33,4.33,0,1,1,6.12,0A4.33,4.33,0,0,1,528.92,401Z"/><polygon class="cls-1" points="546.41 386.35 551.14 381.62 554.07 384.55 562.77 375.84 554.07 367.13 545.36 375.84 548.28 378.76 543.56 383.49 546.41 386.35"/></svg>