<svg xmlns="http://www.w3.org/2000/svg" xmlns:xlink="http://www.w3.org/1999/xlink" width="200" height="130" viewBox="0 0 200 130"><defs><clipPath id="a"><rect x="0.2" y="26.3" width="199.8" height="77.48" fill="none"/></clipPath></defs><title>yrityslogot</title><rect x="0.2" y="26.3" width="199.8" height="77.48" fill="#666"/><g clip-path="url(#a)"><path d="M85.9,65.1c0-9.1-5.6-14.7-15.2-14.7S55.4,56,55.4,65.1,61,79.7,70.6,79.7s15.2-5.6,15.2-14.7m-5.1,0c0,8.4-4.8,10.5-10.1,10.5S60.4,73.5,60.4,65.1s4.9-10.5,10.2-10.5,10.1,2.1,10.1,10.5" fill="#fff"/></g><g clip-path="url(#a)"><path d="M117.3,79.2V54.3c0-3.3-2.3-3.3-4.9-3.3,0,13,0,28.2,0,28.2Z" fill="#fff"/></g><g clip-path="url(#a)"><path d="M145.8,76.8c-.8,1.8-1.5,2.2-3.5,2.3h-2.5L152,50.9h6.5l12.2,28.2h-2.3c-2.2,0-3.1-.5-3.9-2.3l-9.1-22.1h-.5Z" fill="#fff"/></g><g clip-path="url(#a)"><path d="M94.4,75.8h11.7c3.4,0,3,3.4,3,3.4H89.5V51c2.6,0,4.9,0,4.9,3.3V75.8Z" fill="#fff"/></g><g clip-path="url(#a)"><path d="M52.8,70.7c0-6.4-7.1-7-12.4-8.4-2.5-.7-5.2-1.6-5.2-4.3s3.9-4.1,7.2-4.1a34.9,34.9,0,0,1,4.5.5c2.7.6,3.5-2.8,3.5-2.8a23.4,23.4,0,0,0-7.8-1.3c-7,0-12.2,2.4-12.2,7.9s6.6,7.5,12.3,8.9c2.5.6,5.1,1.5,5.1,4.2s-3,4.3-6.9,4.3a17.6,17.6,0,0,1-6.9-1.1c-3-1.1-4.6,2.6-4.6,2.6a20.4,20.4,0,0,0,10.4,2.6c10.5,0,12.9-5.4,12.9-9" fill="#fff"/></g><g clip-path="url(#a)"><path d="M129.2,54.4h-5.6c-3.4,0-3-3.4-3-3.4h22.1s.4,3.4-3,3.4h-5.6V79.2h-4.9Z" fill="#fff"/></g></svg>