<svg xmlns="http://www.w3.org/2000/svg" width="200" height="130" viewBox="0 0 200 130"><title>yrityslogot</title><rect x="16.22" y="20.61" width="167.68" height="85.62" fill="#666"/><path d="M135.74,69.09c.11-1.06.74-1.13,1.49-1a27.08,27.08,0,0,0,2.81.26c.52,0,1.13-.2.6-1-.06-.09.17-.54.23-.53,1.64.15,1.48-1.09,1.68-2.09,0-.18.46-.47.52-.43a5.78,5.78,0,0,1,1.8,1.43A2.33,2.33,0,0,0,147.13,67c.14,0,.48.48.42.58a18.64,18.64,0,0,1-1.38,2.29,2.32,2.32,0,0,0-.38,2.52,1.32,1.32,0,0,1-.26,1.2c-1.57,1.38-3.16,2.75-4.85,4-1.38,1-2,.86-2.6-.75C137.16,74.32,136.51,71.68,135.74,69.09Z" fill="#fff"/><path d="M142.08,60.17c2.18,1.24,4.29,2.37,6.29,3.66.25.16-.07,1.21-.13,1.85-.44-.19-1-.27-1.29-.6A5.82,5.82,0,0,0,143,63c-.47-.06-1,0-1.38-.24a2.23,2.23,0,0,1-.9-1.4C140.72,61.07,141.44,60.72,142.08,60.17Z" fill="#fff"/><path d="M148.69,35.2a12.57,12.57,0,0,1,.15,2.7,6.1,6.1,0,0,1-1,1.83c-.44-.69-1.16-1.35-1.26-2.09a19.22,19.22,0,0,1,.15-3.65c0-.19,0-.38,0-.57.11,0,.29,0,.32.09.7,1.32.86-.37,1-.22a2.85,2.85,0,0,1,.59,1.2,2.3,2.3,0,0,1,0,.71Z" fill="#fff"/><path d="M172.16,43.46a10.58,10.58,0,0,1-2.66-2.94,15.78,15.78,0,0,0-4-5.63c-2-1.8-3.63-4-5.55-5.84a5.8,5.8,0,0,0-4.19-2,2.31,2.31,0,0,1-1-.45c-.37-.21-.73-.46-1.09-.7a8,8,0,0,0,.35,1.53c.14.32.63.5.76.82a6.51,6.51,0,0,1,.31,1.6,2.81,2.81,0,0,1-.55.12c-.25-.75-.6-1.21-1.46-.7-.58.34-1.36.51-1.75,1-1.63,2-1.66,4.55-1.54,6.95.05,1,1,2,1.57,3,0,0,.15,0,.23.06a2.6,2.6,0,0,0,.08-.41c0-.52,0-1,0-1.56.16.54.32,1.08.46,1.63.09.32.12.66.24,1,0,.12.27.17.38.29.79.76,1.58,1.54,2.35,2.32,0,0-.2.35-.34.38a15.33,15.33,0,0,1-2.77.55c-2.08.09-4.16,0-6.24.08-1.73.07-2.51,1.34-2.26,3.07a7.43,7.43,0,0,1-.4,2.37c0,.23-.23.44-.22.66,0,1.54-.33,3.13.91,4.47.28.3.08,1,.09,1.58-.44,0-.89,0-1.32-.06s-.64-.24-1-.25a3.12,3.12,0,0,0-.87.24c.15.24.24.56.46.7a20.73,20.73,0,0,0,3.95,2.27,11.64,11.64,0,0,1,4.1,2.64c1.93,1.74,2.24,3.63,2.2,6.09-.05,3.3-.6,6.76,1.29,9.86a1.31,1.31,0,0,1-.61,2,15.84,15.84,0,0,1-2.76.9c-.78.2-1.6.22-2.39.4-.28.06-.5.35-.75.53.23.26.42.66.71.76,1.5.53,2.94,1.39,4.67.83a4.36,4.36,0,0,1,1.7.07c1.07.11,1,.63.44,1.31-.85,1-1.67,2-2.56,3a1.7,1.7,0,0,1-1,.45c-1.33.14-2.66.2-4,.3l0-.18c-.64.12-1.3.2-1.93.37-1.8.5-2,.7-1.48,2.48A6.3,6.3,0,0,0,146,95.71a8.1,8.1,0,0,1,1.3.88,1.13,1.13,0,0,0,.69.23h1.22a1.5,1.5,0,0,0,1.27-.69,23.93,23.93,0,0,1,3-3.59,31,31,0,0,0,4.26-5c1.82-3.06,3.27-6.34,4.83-9.54a9.26,9.26,0,0,0,.53-1.78,17.58,17.58,0,0,0,.18-7.5c-.16-.89.34-2.29-1.48-1.93-.11,0-.26-.28-.42-.34a10.43,10.43,0,0,0-2.15-.74c-.62-.09-1,.17-.52.95a1.23,1.23,0,0,1-.42,1.11,8.05,8.05,0,0,1-2.38.26,1.07,1.07,0,0,1-.8-.62,1.31,1.31,0,0,1,.33-1c1.35-1.53,5-2.09,6.82-1.07s1.88,1.06,2.32-1.11a.83.83,0,0,1,.14-.4,1.21,1.21,0,0,1,.54-.36c.09,0,.33.24.34.38a18.66,18.66,0,0,1,.13,2.79c-.11,1.52-.36,3-.52,4.56a4.14,4.14,0,0,0,.12,1c.39-.2,1-.31,1.14-.62a17.29,17.29,0,0,0,1.82-4.3,44.08,44.08,0,0,1,3.1-8.83,8.52,8.52,0,0,0,.7-2.38c.12-1.27-.28-2.68.14-3.81a3.85,3.85,0,0,0-.76-4.51c-.3-.31-.32-.88-.47-1.33-.33-1-.67-2.05-1-3.09a2.88,2.88,0,0,1,0-.71,2.65,2.65,0,0,1,.56.35,25.8,25.8,0,0,0,2.54,2.68c1.25,1,1.31,2.24,1.26,3.59,0,.2-.21.39-.32.58a4.54,4.54,0,0,1-.44-.49,2.77,2.77,0,0,1-.22-.51,1.44,1.44,0,0,0-.08.52c.23,1,.48,1.93.73,2.89a.92.92,0,0,0,.14.23,2.27,2.27,0,0,0,.24-.45A7.69,7.69,0,0,0,172.16,43.46Zm-15.3,33.27a3.13,3.13,0,0,1,.39.38c.75,1.32,1.53,2.62,2.22,4,.23.45.31.88-.58,1-.6.11-1.07,1-1.6,1.46a4.21,4.21,0,0,1-.42.32c0-.13-.15-.29-.11-.38,1-1.84-.2-3.61-.14-5.41A10.33,10.33,0,0,1,156.86,76.73Zm7.51-29.53a2.26,2.26,0,0,1-.13.38,2.28,2.28,0,0,1-.4-.31c-.28-.33-.26-.31-.63-.14-.11.05-.35-.07-.48-.18q-1.48-1.25-2.94-2.53a3.28,3.28,0,0,1-.79-.78c-.34-.62-.6-.86-1.09-.13-.07.11-.49.09-.68,0-1.26-.61-1.7-1.71-1.75-3.67a26.59,26.59,0,0,1,1.33-3.38c.21-.39,1.08-.44,1.65-.65a4.05,4.05,0,0,1-.28,1.6c-.42.61-.5.56.3.58,1.25,0,2.63,2,2.57,3.23a8.35,8.35,0,0,0,.25,2.37,1.23,1.23,0,0,0,.89.65A2.65,2.65,0,0,1,164.37,47.2Z" fill="#fff"/><path d="M33.62,49.25H34l4.43-6.86,1.29.81L35.4,49.91l5.22,8.17-1.33.81-5.12-8.22h-.55v7.91H32V42.69h1.6Z" fill="#fff"/><path d="M45.41,55.2l-1.17,3.69-1.57-.57,3.91-12.15h2l3.91,12.15L51,58.89,49.82,55.2ZM47.6,48l-1.76,5.74h3.53Z" fill="#fff"/><path d="M59.13,47.6H55.7V46.17h8.38V47.6H60.73v11h-1.6Z" fill="#fff"/><path d="M69.09,46.17h1.6v11h6.5v1.43h-8.1Z" fill="#fff"/><path d="M81.07,46.17h7.74V47.6H82.67v3.72h5.07v1.43H82.67v4.41h6.14v1.43H81.07Z" fill="#fff"/><path d="M93.37,46.17h7.74V47.6H95v3.72H100v1.43H95v4.41h6.15v1.43H93.37Z" fill="#fff"/><path d="M104.92,46.17h2l4.81,10.46,0,0-.14-3.22V46.17h1.6V58.58h-2l-4.81-10.46,0,0,.14,3.24v7.17h-1.6Z" fill="#fff"/><path d="M119.17,55.2,118,58.89l-1.57-.57,3.91-12.15h2l3.91,12.15-1.57.57-1.14-3.69ZM121.36,48l-1.76,5.74h3.53Z" fill="#fff"/><path d="M33.62,71.91H34L38.47,65l1.29.81L35.4,72.58l5.22,8.17-1.33.81-5.12-8.22h-.55v7.91H32V65.36h1.6Z" fill="#fff"/><path d="M52,75.05c0,1-.07,6.41-4.41,6.41-2,0-4.41-1.43-4.41-6.41s2.36-6.43,4.41-6.43S52,70,52,75.05Zm-7.15,0c0,1.81.33,4.91,2.74,4.91s2.74-3.1,2.74-4.91S50,70.12,47.6,70.12,44.86,73.22,44.86,75.05Z" fill="#fff"/><path d="M56.3,68.83h4.22c2.07,0,3.72,1,3.72,3.38A3.68,3.68,0,0,1,61.7,75.7l3,5-1.38.83L60.2,75.93H57.89v5.31H56.3ZM60,74.5a2.29,2.29,0,0,0,2.57-2.29,1.86,1.86,0,0,0-2.1-2H57.89V74.5Z" fill="#fff"/><path d="M71.43,70.26H68V68.83h8.38v1.43H73v11h-1.6Z" fill="#fff"/><path d="M81.07,68.83h7.74v1.43H82.67V74h5.07v1.43H82.67v4.41h6.14v1.43H81.07Z" fill="#fff"/><path d="M94.18,77.32c.31,1.52,1,2.64,2.71,2.64a2.08,2.08,0,0,0,2.33-2.1c0-1.52-1.29-1.91-2.5-2.41-1.81-.76-3.52-1.24-3.52-3.57,0-2.1,1.69-3.26,3.64-3.26a3.69,3.69,0,0,1,3.79,3.12l-1.52.45c-.29-1.21-.93-2.07-2.29-2.07-1,0-2,.52-2,1.64s.71,1.5,1.67,1.93l2.64,1.17a3.16,3.16,0,0,1,1.72,2.91c0,2.36-1.64,3.69-3.93,3.69a4,4,0,0,1-4.14-3.69Z" fill="#fff"/><path d="M106.78,68.83v8.46c0,1.81.52,2.67,2.17,2.67,2,0,2.43-.88,2.43-2.67V68.83H113v9.22c0,1.64-1.17,3.41-3.91,3.41s-3.88-1.69-3.88-3.5V68.83Z" fill="#fff"/><path d="M125.77,75.05c0,1-.07,6.41-4.41,6.41-2,0-4.41-1.43-4.41-6.41s2.36-6.43,4.41-6.43S125.77,70,125.77,75.05Zm-7.15,0c0,1.81.33,4.91,2.74,4.91s2.74-3.1,2.74-4.91-.33-4.93-2.74-4.93S118.62,73.22,118.62,75.05Z" fill="#fff"/></svg>