<svg xmlns="http://www.w3.org/2000/svg" width="200" height="130" viewBox="0 0 200 130"><title>yrityslogot</title><path d="M77.5,80.7,61.8,64.4c1.1-3.1,4-10.6,5.3-11.9,10.7-11.3,35-31.9,38.4-34.7l24.7,29.1,15.4,16c-1,2-6.7,13.6-11.1,18.7-8.4,9.9-27.5,27.8-30.5,30.5Z" fill="#fff"/><path d="M105.4,18.5l24.4,28.7h0l15.1,15.7c-1.3,2.7-6.7,13.4-10.9,18.3-8.1,9.5-26.1,26.4-30.1,30.1L77.9,80.4h0L62.3,64.3c1.5-4.1,4-10.3,5.1-11.5,10.3-11,33.5-30.5,38-34.3m.1-1.4s-27.3,22.8-38.8,35c-1.7,1.8-5.5,12.4-5.5,12.4L77.1,81.1l26.8,31.6s21.7-20.1,30.9-30.9c4.9-5.7,11.3-19.1,11.3-19.1L130.5,46.5,105.5,17.1Z" fill="#666"/><path d="M64.7,93.5l.5.5,21.9,21.9a24.4,24.4,0,0,0,34.4,0L143.4,94a24.4,24.4,0,0,0,2.8-31.1h-.1a24.9,24.9,0,0,1-4.1,5.5L120.3,89.7a24.4,24.4,0,0,1-34.4,0l-8.8-8.8Z" fill="#666"/><path d="M60.5,63.7a23.7,23.7,0,0,1,3-30.9l22-20.9a24.9,24.9,0,0,1,34.8.5l21.5,21.5.6.6L130.3,46.6l-9-9a24.4,24.4,0,0,0-34.4,0L65,59.5a25.1,25.1,0,0,0-3.9,5Z" fill="#666"/><path d="M117.6,49.5c-.1.9-.4,1.1-1.1,1.2H92.3c-.9,0-1.5-.2-1.7-1.1h-1a31.4,31.4,0,0,1-.4,3.5c-.1,1.1-.4,2.2-.5,3.3V57H90a16.6,16.6,0,0,0,.5-2.1,2.2,2.2,0,0,1,1.9-1.7h8.4V76.3c0,.5-.1,1-.1,1.5a2,2,0,0,1-1.8,1.8H97v1.1h14.1V79.7l-2.1-.2a2.3,2.3,0,0,1-2.2-2.1,9.2,9.2,0,0,1-.1-1.8V53.2h7.2c1.7,0,2.6.9,2.9,2.6s.1,1,.2,1.5l1.1-.5c.2-2.3.4-4.6.6-6.9l-.5-.2h-.6Z" fill="#666"/></svg>