<svg xmlns="http://www.w3.org/2000/svg" width="200" height="130" viewBox="0 0 200 130"><title>yrityslogot</title><path d="M73.2,81h7a3.9,3.9,0,0,0,3.1-1.3,3.7,3.7,0,0,0-.7-5.3A20.9,20.9,0,0,0,79,72.6a15.6,15.6,0,0,1-4.1-2.2,5.4,5.4,0,0,1-2-3.9A6.4,6.4,0,0,1,74,62.3H70.7a3.3,3.3,0,0,1-3.3-2.8,11,11,0,0,1-.3-2.4c0-2.4,0-4.8,0-7.2,0-.1,0-.3,0-.4H64.4V46.2h2.4c.7,0,.6.1.7-.5l.9-3v-.3h2.3v3.8h10l-.3.5-1.2,2.4a.5.5,0,0,1-.5.3h-8v.3c0,2.7,0,5.3,0,8a2,2,0,0,0,.1.7,1,1,0,0,0,.8.6h93.3l-.9,1.7-.7,1.3-.4.2H80.4a4.1,4.1,0,0,0-2.9,1,3.1,3.1,0,0,0,0,4.5,10,10,0,0,0,2.2,1.3l4.5,2A6.6,6.6,0,0,1,86.7,81a6.8,6.8,0,0,1-4.6,2.9,12.9,12.9,0,0,1-8.5-1.2.6.6,0,0,1-.4-.7,8.5,8.5,0,0,0,0-.9Z" fill="#666"/><path d="M30.8,37.6l1.1,24.3H28.4l-.9-18.4c-2.1,6.1-4.7,12.2-6.9,18.4H17.4c-.1,0-.2-.2-.3-.3l-3.1-7.8-3.2-8.3c-.3-.7-.4-1.4-.7-2L9,61.9H5.5L7.2,37.6h3.7a.4.4,0,0,1,.5.3l4.5,11.6,2.5,6.6a16.3,16.3,0,0,1,.4,1.6v.2c1.3-4.4,3.2-8.5,4.8-12.8L26.5,38a.5.5,0,0,1,.6-.4Z" fill="#666"/><path d="M187.3,79.1l1.5-3.9,2.4-6.5a.4.4,0,0,1,.5-.3h3.4l-.8,1.9c-1.6,4.1-3.3,8.1-4.9,12.2-.7,1.9-1.2,3.8-1.7,5.7s-.8,2.8-1.1,4.3-.1.3-.3.3h-3.5c.3-1,.5-2,.8-2.9l2-6.2a.8.8,0,0,0,0-.5l-4.9-11.2-.2-.4-.3-.2h-6.3v.2q0,4,0,8a3.2,3.2,0,0,0,.1.8,1.3,1.3,0,0,0,1.4,1.1l2.5-.2c0,.7,0,1.4,0,2.1l-.2.2a7.6,7.6,0,0,1-5.1.3,3.1,3.1,0,0,1-2.1-2.5,11.2,11.2,0,0,1-.3-2.3c0-2.4,0-4.9,0-7.3v-.5h-2.9V68h2.8c.3,0,.4-.1.4-.3l.9-3.1a.4.4,0,0,1,.5-.3h1.9V68h8.9a.4.4,0,0,1,.5.3l3.8,10.1Z" fill="#666"/><path d="M138.1,68.4h3.6V83.8h-3.5V82.3l-1.1.8a6.9,6.9,0,0,1-6.4.5,3.9,3.9,0,0,1-2.3-2.7,9.7,9.7,0,0,1-.4-2.5c0-3.3,0-6.5,0-9.8v-.2h3.7v.4c0,3,0,6,0,9a7,7,0,0,0,.3,2,2.1,2.1,0,0,0,2.1,1.5,5.8,5.8,0,0,0,3.7-1.3,1,1,0,0,0,.5-1c0-3.4,0-6.7,0-10.1Z" fill="#666"/><path d="M50.6,46.5v1.4l1.3-.9a6.9,6.9,0,0,1,5.6-.6A4.4,4.4,0,0,1,60.8,50a9,9,0,0,1,.2,1.9c0,3.2,0,6.5,0,9.7,0,.1,0,.2,0,.3H57.4v-.4q0-4.5,0-9a4.7,4.7,0,0,0-.5-2.3,2.1,2.1,0,0,0-1.4-1.1,4.6,4.6,0,0,0-3.3.6l-1.2.8a.6.6,0,0,0-.2.6q0,5.2,0,10.3v.5H47.1c0-.1,0-.3,0-.4q0-7.3,0-14.6c0-.3.1-.4.4-.4h3.1Z" fill="#666"/><path d="M123.7,72.4a9.8,9.8,0,0,0-3.9-1.4,6.5,6.5,0,0,0-3,.2,4,4,0,0,0-2.6,2.7,7.2,7.2,0,0,0-.1,4.2,4,4,0,0,0,4.3,3.2,10.5,10.5,0,0,0,5.1-1.5h.2v2c0,1.1,0,1.1-1,1.6a10.2,10.2,0,0,1-7.9.5,6.5,6.5,0,0,1-4.1-4.2,9.1,9.1,0,0,1,.2-6.8,7.2,7.2,0,0,1,4.6-4.1,10.2,10.2,0,0,1,7.2.3c1,.4,1,.4,1,1.6s0,1.3,0,2Z" fill="#666"/><path d="M37.7,37.6H61.9v.3l-1.3,2.6a.4.4,0,0,1-.5.3H37.7Z" fill="#666"/><path d="M156.4,71.4l-2.6-.2a2.2,2.2,0,0,0-2.4,1.8,8.2,8.2,0,0,0-.3,2c0,2.8,0,5.6,0,8.3,0,.1,0,.3,0,.5h-3.7v-.5c0-3,0-6,0-8.9a27.7,27.7,0,0,0-.6-6h2.7a.4.4,0,0,1,.5.4l.4,1.7v.4l.7-1.1a3.7,3.7,0,0,1,2.2-1.7,5.1,5.1,0,0,1,2.4.3c.4.1.5.3.5.7s0,1.4,0,2Z" fill="#666"/><path d="M37.7,46.5h3.6V61.9H37.7Z" fill="#666"/><path d="M163.7,83.8h-3.6V68.4h3.6Z" fill="#666"/><path d="M105.2,80A10.5,10.5,0,0,1,99,81.3,4.7,4.7,0,0,1,95.5,79a4.3,4.3,0,0,1-.6-2h11.9a36.1,36.1,0,0,0-.3-3.8,6,6,0,0,0-5-5.1,9.4,9.4,0,0,0-4.4.1,7.1,7.1,0,0,0-5.2,4.5,9.4,9.4,0,0,0-.2,6,6.8,6.8,0,0,0,3.8,4.6,9.8,9.8,0,0,0,4.4.8,12.5,12.5,0,0,0,6-1.6l.2-.3c0-.9,0-1.8,0-2.7Zm-7-9.1a5,5,0,0,1,2.7.2,3.3,3.3,0,0,1,2.1,3.3H94.9A4,4,0,0,1,98.3,70.9Z" fill="#666"/></svg>