<svg xmlns="http://www.w3.org/2000/svg" width="200" height="130" viewBox="0 0 200 130"><title>yrityslogot</title><rect x="16.2" y="20.6" width="167.7" height="85.62" fill="#666"/><path d="M135.7,69.1c.1-1.1.7-1.1,1.5-1l2.8.3c.5,0,1.1-.2.6-1s.2-.5.2-.5c1.6.1,1.5-1.1,1.7-2.1s.5-.5.5-.4a5.8,5.8,0,0,1,1.8,1.4,2.3,2.3,0,0,0,2.3,1.4c.1,0,.5.5.4.6a18.6,18.6,0,0,1-1.4,2.3,2.3,2.3,0,0,0-.4,2.5,1.3,1.3,0,0,1-.3,1.2c-1.6,1.4-3.2,2.8-4.8,4s-2,.9-2.6-.7S136.5,71.7,135.7,69.1Z" fill="#fff"/><path d="M142.1,60.2c2.2,1.2,4.3,2.4,6.3,3.7.3.2-.1,1.2-.1,1.8s-1-.3-1.3-.6A5.8,5.8,0,0,0,143,63c-.5-.1-1,0-1.4-.2a2.2,2.2,0,0,1-.9-1.4C140.7,61.1,141.4,60.7,142.1,60.2Z" fill="#fff"/><path d="M148.7,35.2a12.6,12.6,0,0,1,.2,2.7,6.1,6.1,0,0,1-1,1.8c-.4-.7-1.2-1.3-1.3-2.1a19.2,19.2,0,0,1,.1-3.7v-.6h.3c.7,1.3.9-.4,1-.2a2.8,2.8,0,0,1,.6,1.2,2.3,2.3,0,0,1,0,.7Z" fill="#fff"/><path d="M172.2,43.5a10.6,10.6,0,0,1-2.7-2.9,15.8,15.8,0,0,0-4-5.6c-2-1.8-3.6-4-5.6-5.8a5.8,5.8,0,0,0-4.2-2,2.3,2.3,0,0,1-1-.4l-1.1-.7a8,8,0,0,0,.4,1.5c.1.3.6.5.8.8a6.5,6.5,0,0,1,.3,1.6h-.5c-.2-.7-.6-1.2-1.5-.7s-1.4.5-1.8,1c-1.6,2-1.7,4.5-1.5,6.9s1,2,1.6,3h.2a2.6,2.6,0,0,0,.1-.4c0-.5,0-1,0-1.6l.5,1.6c.1.3.1.7.2,1l.4.3,2.3,2.3s-.2.3-.3.4a15.3,15.3,0,0,1-2.8.6h-6.2c-1.7.1-2.5,1.3-2.3,3.1a7.4,7.4,0,0,1-.4,2.4c0,.2-.2.4-.2.7s-.3,3.1.9,4.5.1,1,.1,1.6h-1.3l-1-.2-.9.2c.1.2.2.6.5.7a20.7,20.7,0,0,0,3.9,2.3,11.6,11.6,0,0,1,4.1,2.6c1.9,1.7,2.2,3.6,2.2,6.1s-.6,6.8,1.3,9.9a1.3,1.3,0,0,1-.6,2,15.8,15.8,0,0,1-2.8.9l-2.4.4c-.3.1-.5.3-.8.5s.4.7.7.8,2.9,1.4,4.7.8a4.4,4.4,0,0,1,1.7.1c1.1.1,1,.6.4,1.3l-2.6,3a1.7,1.7,0,0,1-1,.5l-4,.3v-.2l-1.9.4c-1.8.5-2,.7-1.5,2.5a6.3,6.3,0,0,0,3.3,4.3l1.3.9.7.2h1.2a1.5,1.5,0,0,0,1.3-.7,23.9,23.9,0,0,1,3-3.6,31,31,0,0,0,4.3-5c1.8-3.1,3.3-6.3,4.8-9.5a9.3,9.3,0,0,0,.5-1.8,17.6,17.6,0,0,0,.2-7.5c-.2-.9.3-2.3-1.5-1.9-.1,0-.3-.3-.4-.3a10.4,10.4,0,0,0-2.1-.7c-.6-.1-1,.2-.5.9a1.2,1.2,0,0,1-.4,1.1,8.1,8.1,0,0,1-2.4.3,1.1,1.1,0,0,1-.8-.6,1.3,1.3,0,0,1,.3-1c1.4-1.5,5-2.1,6.8-1.1s1.9,1.1,2.3-1.1a.8.8,0,0,1,.1-.4l.5-.4c.1,0,.3.2.3.4a18.7,18.7,0,0,1,.1,2.8c-.1,1.5-.4,3-.5,4.6a4.1,4.1,0,0,0,.1,1c.4-.2,1-.3,1.1-.6a17.3,17.3,0,0,0,1.8-4.3,44.1,44.1,0,0,1,3.1-8.8,8.5,8.5,0,0,0,.7-2.4c.1-1.3-.3-2.7.1-3.8a3.8,3.8,0,0,0-.8-4.5c-.3-.3-.3-.9-.5-1.3l-1-3.1a2.9,2.9,0,0,1,0-.7l.6.4a25.8,25.8,0,0,0,2.5,2.7c1.2,1,1.3,2.2,1.3,3.6s-.2.4-.3.6l-.4-.5-.2-.5a1.4,1.4,0,0,0-.1.5l.7,2.9v.2l.2-.4A7.7,7.7,0,0,0,172.2,43.5ZM156.9,76.7l.4.4c.8,1.3,1.5,2.6,2.2,4s.3.9-.6,1-1.1,1-1.6,1.5l-.4.3c0-.1-.2-.3-.1-.4,1-1.8-.2-3.6-.1-5.4A10.3,10.3,0,0,1,156.9,76.7Zm7.5-29.5v.4l-.4-.3c-.3-.3-.3-.3-.6-.1l-.5-.2-2.9-2.5a3.3,3.3,0,0,1-.8-.8c-.3-.6-.6-.9-1.1-.1s-.5.1-.7,0-1.7-1.7-1.7-3.7a26.6,26.6,0,0,1,1.3-3.4c.2-.4,1.1-.4,1.6-.6a4.1,4.1,0,0,1-.3,1.6c-.4.6-.5.6.3.6s2.6,2,2.6,3.2a8.4,8.4,0,0,0,.2,2.4,1.2,1.2,0,0,0,.9.6A2.6,2.6,0,0,1,164.4,47.2Z" fill="#fff"/><text transform="translate(28.2 58.6)" font-size="23.83" fill="#fff" font-family="OratorStd, Orator Std" letter-spacing="-0.08em">Katleena<tspan x="0" y="22.7">Kortesuo</tspan></text></svg>